<svg xmlns="http://www.w3.org/2000/svg" width="156.688" height="44.307"><defs><linearGradient id="logo_svg__a" x1="0.961" y1="0.275" x2="0.04" y2="0.877" gradientUnits="objectBoundingBox"><stop offset="0" stop-color="#7770b2"></stop><stop offset="0.134" stop-color="#7471b3"></stop><stop offset="0.237" stop-color="#6a76b5"></stop><stop offset="0.329" stop-color="#5a7eba"></stop><stop offset="0.416" stop-color="#4389c0"></stop><stop offset="0.497" stop-color="#2597c8"></stop><stop offset="0.519" stop-color="#1c9bca"></stop><stop offset="0.699" stop-color="#30abae"></stop><stop offset="0.881" stop-color="#40b799"></stop><stop offset="1" stop-color="#46bb91"></stop></linearGradient></defs><g data-name="Liqwid logo"><g data-name="Group 4"><g data-name="Group 3"><g data-name="Group 2"><path data-name="Path 1" d="M31.607 10.867h5.367v21.182h12.921v4.66H31.607Z"></path><g data-name="Group 1"><path data-name="Path 2" d="M51.972 32.291h6.825v-9.453h-6.339v-4.44h11.463v13.871h5.851v4.44h-17.8Z"></path><path data-name="Rectangle 1" d="M63.879 16.49h-5.08v-5.456h5.08z"></path></g><path data-name="Path 3" d="M85.744 33.617h-.729a7.006 7.006 0 0 1-.8 1.193A4.643 4.643 0 0 1 83 35.826a7.372 7.372 0 0 1-1.789.707 10.166 10.166 0 0 1-2.5.265 9.39 9.39 0 0 1-3.468-.618 7.868 7.868 0 0 1-2.805-1.811 8.5 8.5 0 0 1-1.877-2.938 11.115 11.115 0 0 1-.663-3.976v-.663a10.6 10.6 0 0 1 .707-3.954 8.533 8.533 0 0 1 1.944-2.938 8.393 8.393 0 0 1 2.893-1.833 9.643 9.643 0 0 1 3.468-.618 7.662 7.662 0 0 1 3.865.839 5.7 5.7 0 0 1 2.231 2.341h.729v-2.65h5.124v26.328h-5.124Zm-5.367-1.259a5.481 5.481 0 0 0 3.887-1.392 4.745 4.745 0 0 0 1.48-3.644v-.442a4.745 4.745 0 0 0-1.48-3.644 5.444 5.444 0 0 0-3.887-1.392 5.554 5.554 0 0 0-3.887 1.347 4.7 4.7 0 0 0-1.48 3.667v.442a4.666 4.666 0 0 0 1.48 3.667 5.385 5.385 0 0 0 3.886 1.391Z"></path><path data-name="Path 4" d="M114.677 36.709h-8.857l-1.149-13.871v-2.209h-.972v2.209l-1.152 13.871H93.69l-1.343-18.31h4.7l.883 13.871v2.209h.972V32.27l1.016-13.871h8.459l1.016 13.871v2.209h.972V32.27l.883-13.871h4.7Z"></path><path data-name="Path 5" d="M116.953 32.292h6.825v-9.453h-6.339v-4.44h11.463V32.27h5.851v4.44h-17.8Zm6.825-21.248h5.08V16.5h-5.08Z"></path><path data-name="Path 6" d="M151.564 34.059h-.729a7.012 7.012 0 0 1-.8 1.193 4.642 4.642 0 0 1-1.215 1.016 7.612 7.612 0 0 1-1.789.42 10.166 10.166 0 0 1-2.5.265 9.39 9.39 0 0 1-3.468-.618 6.951 6.951 0 0 1-2.805-1.524 8.5 8.5 0 0 1-1.877-2.938 11.115 11.115 0 0 1-.663-3.976v-.663a10.6 10.6 0 0 1 .707-3.954 8.533 8.533 0 0 1 1.944-2.938 8.393 8.393 0 0 1 2.893-1.833 9.642 9.642 0 0 1 3.468-.618 7.662 7.662 0 0 1 3.865.839 5.706 5.706 0 0 1 2.231 2.341h.729V10.889h5.124v25.842h-5.124Zm-5.367-1.259a5.481 5.481 0 0 0 3.887-1.392 4.745 4.745 0 0 0 1.48-3.644v-.442a4.746 4.746 0 0 0-1.48-3.644 5.444 5.444 0 0 0-3.888-1.389 5.554 5.554 0 0 0-3.887 1.347 4.7 4.7 0 0 0-1.48 3.667v.442a4.666 4.666 0 0 0 1.48 3.667 5.385 5.385 0 0 0 3.887 1.388Z"></path></g></g></g><g data-name="Group 5"><path data-name="Path 7" d="M69.108 94.691h-2.187v-4.285H64.8v-4.263h-2.142v-2.1H60.6l-.044-4.285h-2.138l-.018-4.239h-2.1V71.3h-2.189v4.219h-2.1l-.022 4.241h-2.141l-.022 4.285H47.75v2.1h-2.143v4.263h-2.12v4.285H41.3v10.6h2.209l-.022 4.307h2.054v2.165h4.307l-.044 2.1H60.6l-.022-2.1h4.285V109.6h2.054l-.022-4.307h2.209Z" transform="translate(-41.3 -71.3)" fill="url(#logo_svg__a)"></path><path data-name="Path 8" d="M4.329 27.698v6.405h2.165v2.12h4.241v-2.165h-2.12l-.022-2.12h-2.1l.022-4.241Z" fill="#fff"></path></g></g></svg>
