<svg viewBox="0 0 100 100" xmlns="http://www.w3.org/2000/svg">
    <defs></defs>
    <path d="M 25.043 28.086 L 51.405 1.359 C 53.207 -0.614 53.852 -0.426 54.471 1.837 L 54.704 20.94 C 54.638 23.915 54.423 25.208 53.523 26.428 L 37.522 42.903 C 35.429 45.491 35.715 46.522 35.635 47.676 C 35.556 48.834 37.676 52.194 41.254 52.492 C 41.254 52.492 51.049 52.492 52.081 52.492 C 53.107 52.492 53.835 54.155 52.081 55.839 L 29.986 77.999 C 27.253 80.579 25.7 80.571 22.924 79.671 C 18.664 77.289 18.589 75.083 18.437 71.24 L 18.437 46.72 C 18.304 38.96 19.41 34.82 25.043 28.086 Z" fill="#ff6100" style=""></path>
    <path d="M 72.785 71.903 L 45.62 98.642 C 43.763 100.616 43.097 100.423 42.466 98.161 L 42.224 79.061 C 42.289 76.083 42.514 74.801 43.434 73.574 L 59.928 57.098 C 62.086 54.506 61.788 53.479 61.871 52.282 C 61.95 51.089 59.766 47.763 56.041 47.469 L 44.922 47.469 C 43.86 47.469 43.115 45.807 44.922 44.123 L 67.688 21.998 C 70.513 19.423 72.109 19.432 74.964 20.326 C 79.347 22.735 79.426 24.918 79.562 28.762 L 79.562 53.277 C 79.724 61.037 78.574 65.178 72.785 71.903 Z" fill="#ff6100" style=""></path>
</svg>
